<svg version="1.2" xmlns="http://www.w3.org/2000/svg" viewBox="829.0000000000001 -183.46799816342246 411.38211273108584 868.1557343548654" width="412" height="869">
	<title>DSP logo</title>
	<style>
		.s0 { fill: #f05c5c } 
		.s1 { fill: #ffc248 } 
		.s2 { fill: #3be2ff } 
		.s3 { fill: #84d632 } 
	</style>
	<g id="Layer 1">
		<g id="-e-pink">
			<path id="&lt;Compound Path&gt; copy 7" class="s0" d="m910-75.8v-24.2q-5.2 0.3-10.7 0.3c-92.2 0-86-83.8-25.5-83.8 44.7 0 45.7 45.7 45.7 80.6 27.8-4.5 45.8-18.7 45.8-37.1 0-11.5-7.1-19.6-16.4-19.6-9.7 0-8.4 8.4-14.2 8.4-6.8 0-9.1-12.8 8.5-12.8 33.7 0 37.9 53.3-23.7 62.9v58.2c0 2.8 1.1 4.2 3.3 4.2 1.7 0 3.2-0.8 4.2-2.4 0.7-1.1 2.4-0.5 1.7 1-1.1 2.4-4.3 4.5-8.8 4.5-6.1 0-9.9-3.8-9.9-10v-6.8c-3.2 10.2-10.7 16.8-20 16.8-32.5 0-29.4-56.8-0.4-56.8 9.6 0 17.2 6.5 20.4 16.6zm0-33.5c0-27.5-0.9-37.8-3.3-46.8-4.7-17-15.4-25.5-31.6-25.5-50 0-54.8 80.2 24.8 80.2 3.5 0 6.8-0.1 10.1-0.3zm0 45.5c0-14.7-7.5-25.8-17.6-25.8-19.6 0-22.3 50.9 0.3 50.9 9.9 0 17.3-10.6 17.3-25.1z"/>
			<path id="&lt;Compound Path&gt; copy 8" class="s0" d="m954.7-37.7c20 0 19.1-24.4 35.6-24.4 10.2 0 9 9.2 3.1 9.6-3.2 0.1-3.9-3.3-8.3-3.3-10.6 0-10 20.2-32.6 20.2-17.3 0-28.8-11.8-28.8-28.3 0-16.7 11.6-28.7 27.8-28.7 14.7 0 23.9 10 25.4 24.5 0.2 2.1-0.3 2.6-2.4 2.6-15.5 0-25.9 0-40.8 0 0 16.8 8.4 27.8 21 27.8zm12.4-29.5c-0.4-14.5-5.8-23.6-15.6-23.6-10.9 0-16.8 11.5-17.6 23.6z"/>
			<path id="&lt;Compound Path&gt; copy 9" class="s0" d="m1018-50.3c-0.7-9.3 9.3-8.7 9.6-2.8 0.2 3.5-3.1 4.9-3 8.1 0.1 4 6.8 7.6 16.1 7.6 10.1 0 16.1-3.9 16.1-10.6 0-14.3-36.8-10.1-36.8-28.9 0-9.2 8.8-15.8 21.2-15.8 11.8 0 21 6.3 21.8 14.8 0.8 9.4-9.3 8.7-9.6 2.9-0.2-3.6 3.4-4.9 3.3-8.1-0.1-4.3-6.7-7.9-14.7-7.9-8.8 0-14.6 4.1-14.6 10.2 0 14 37.8 11.1 37.8 28.9 0 9.3-10.3 16.3-24.2 16.3-13.1 0-22.3-6.4-23-14.7z"/>
			<path id="&lt;Compound Path&gt; copy 10" class="s0" d="m1072.4-86.3c0-1.6-1.1-2.8-3-3l-3.2-0.2c-1.2-0.1-1.3-2 0-2h15.7v48.6c0 2.8 1.1 4.2 3.3 4.2 1.7 0 3.2-0.8 4.2-2.4 0.7-1.1 2.4-0.5 1.7 1-1.1 2.4-4.3 4.5-8.8 4.5-6.1 0-9.9-3.8-9.9-10z"/>
			<path id="&lt;Compound Path&gt; copy 11" class="s0" d="m1143.1-9.7c16.2 7.6 32 14.9 47.3 14.9 11.4 0 19.5-4 22.5-11.4 2-4.6 1.5-9.7-1.1-11.3-3.3-2-6.3 0.2-9.3-1.9-3.6-2.6-1.7-8.5 3-8.5 14.4 0 20.6 34.8-14 34.8-16.2 0-32.7-7.3-48.8-14.9-0.7 4.1-1.8 8.1-3.1 11.6-7.1 18.3-23.7 29.3-43.9 29.3-27.2 0-40.8-16.1-40.8-31.5 0-14.3 11.6-28 35-28 15.2 0 30.3 6.1 45.2 13.1v0.1c0.4-6.8 0.7-15.7 0.7-28.2v-10.8c-3.2 10.2-10.7 16.8-20 16.8-32.5 0-29.4-56.8-0.4-56.8 9.6 0 17.2 6.5 20.4 16.6v-10.5c0-1.6-1.1-2.8-3-3l-3.2-0.2c-1.2-0.1-1.3-2 0-2h15.7v44.1c0 12.3-0.1 25.8-2.2 37.7zm-48.5-14.4c-19.9 0-29.8 13-29.8 26.2 0 14.3 11.2 28.8 33.6 28.8 16.7 0 29.6-10.3 34.4-27.2 1.1-3.8 1.7-8.3 2.2-15.3-14.1-6.6-27.8-12.5-40.4-12.5zm41.2-39.7c0-14.7-7.5-25.8-17.6-25.8-19.6 0-22.3 50.9 0.3 50.9 9.9 0 17.3-10.6 17.3-25.1z"/>
			<path id="&lt;Compound Path&gt; copy 12" class="s0" d="m1162.9-75.9c3.2-10.4 11.5-16.7 21.2-16.7 10.4 0 16.7 7.4 16.7 19.9v29.8c0 2.8 1.1 4.2 3.4 4.2 1.7 0 3.1-0.8 4.1-2.4 0.8-1.1 2.5-0.5 1.7 1-1.1 2.4-4.3 4.5-8.8 4.5-6.1 0-9.9-3.8-9.9-10v-24.8c0-12.4-3.9-18.9-11.4-18.9-9.4 0-17 11-17 24.6v43.1c0 30.1-13.3 49.1-34.3 49.1-19.9 0-29.3-14-29.3-27.6 0-12.8 8.4-25.3 24.7-25.3 7.4 0 10.1 2.9 10.1 5.7 0 2.4-2 4.6-4.8 4.6-4.8 0-3.3-6.3-10.9-6.3-10.9 0-17.3 10.7-17.3 21.7 0 11.6 7.1 23.5 23.7 23.5 17.9 0 28.5-16.5 28.5-44.6v-65.5c0-1.6-1.1-2.8-2.9-3l-3.2-0.2c-1.2-0.1-1.4-2 0-2h15.7z"/>
			<path id="&lt;Path&gt; copy 5" class="s0" d="m1236-113.4h-17.5v-17.5c0-2.5-2-4.4-4.4-4.4-2.4 0-4.4 1.9-4.4 4.4v17.5h-17.5c-2.4 0-4.3 1.9-4.3 4.3 0 2.5 1.9 4.4 4.3 4.4h17.5v17.5c0 2.4 2 4.4 4.4 4.4 2.4 0 4.4-2 4.4-4.4v-17.5h17.5c2.4 0 4.4-1.9 4.4-4.4 0-2.4-2-4.3-4.4-4.3z"/>
			<path id="&lt;Path&gt; copy 6" class="s0" d="m870.5-14.3c0 0.6-0.8 1.2-1.8 1.2h-0.2l-0.5-0.2h-0.1c-3.1-1.4-5.9-3.5-8.2-5.5-12.5-10-18.1-24.4-18.9-37.2 0-1.5 1.2-2.7 2.7-2.7h6.6c1.4 0 2.6 1.1 2.7 2.5 0.4 13.6 4.3 30.9 17.4 41.4 0.1 0.1 0.3 0.3 0.3 0.5z"/>
			<path id="&lt;Path&gt; copy 7" class="s0" d="m979-122.9c0-0.6 0.8-1.2 1.8-1.2h0.1l0.6 0.2h0.1c3.1 1.4 5.9 3.5 8.2 5.5 12.4 10 18.1 24.5 18.8 37.2 0.1 1.5-1.1 2.8-2.6 2.8h-6.7c-1.4 0-2.5-1.1-2.6-2.5-0.4-13.7-4.4-31-17.4-41.5-0.2-0.1-0.3-0.2-0.3-0.5z"/>
			<path id="&lt;Path&gt; copy 8" class="s0" d="m1083.3-105.9h-5.7v-5.8c0-0.8-0.7-1.4-1.5-1.4-0.8 0-1.4 0.6-1.4 1.4v5.8h-5.8c-0.8 0-1.4 0.6-1.4 1.4 0 0.8 0.6 1.5 1.4 1.5h5.8v5.7c0 0.8 0.6 1.5 1.4 1.5 0.8 0 1.5-0.7 1.5-1.5v-5.7h5.7c0.8 0 1.5-0.7 1.5-1.5 0-0.8-0.7-1.4-1.5-1.4z"/>
		</g>
		<g id="-e-yellow">
			<path id="&lt;Compound Path&gt; copy" class="s1" d="m909.9 141.3v-24.2q-5.1 0.3-10.6 0.3c-92.3 0-86.1-83.8-25.5-83.8 44.7 0 45.7 45.7 45.7 80.6 27.8-4.5 45.8-18.7 45.8-37.1 0-11.5-7.1-19.6-16.4-19.6-9.7 0-8.5 8.3-14.2 8.3-6.9 0-9.1-12.7 8.4-12.7 33.7 0 38 53.3-23.6 62.8v58.3c0 2.8 1.1 4.2 3.3 4.2 1.7 0 3.2-0.8 4.2-2.4 0.7-1.1 2.4-0.5 1.7 1-1.1 2.4-4.3 4.5-8.9 4.5-6.1 0-9.9-3.8-9.9-10v-6.8c-3.2 10.2-10.6 16.8-20 16.8-32.4 0-29.4-56.9-0.3-56.9 9.5 0 17.1 6.5 20.3 16.7zm0-33.6c0-27.4-0.8-37.7-3.3-46.8-4.6-16.9-15.3-25.5-31.6-25.5-50 0-54.8 80.3 24.9 80.3 3.4 0 6.7-0.1 10-0.4zm0 45.6c0-14.7-7.5-25.8-17.5-25.8-19.6 0-22.3 50.9 0.2 50.9 10 0 17.3-10.6 17.3-25.1z"/>
			<path id="&lt;Compound Path&gt; copy 2" class="s1" d="m954.6 179.4c20 0 19.2-24.4 35.7-24.4 10.2 0 8.9 9.2 3.1 9.6-3.2 0.1-4-3.3-8.4-3.3-10.5 0-9.9 20.2-32.6 20.2-17.2 0-28.8-11.8-28.8-28.3 0-16.7 11.7-28.7 27.9-28.7 14.7 0 23.9 10 25.3 24.5 0.3 2.1-0.2 2.6-2.3 2.6-15.6 0-26 0-40.8 0 0 16.8 8.3 27.8 20.9 27.8zm12.4-29.5c-0.3-14.5-5.7-23.7-15.5-23.7-10.9 0-16.8 11.6-17.7 23.7z"/>
			<path id="&lt;Compound Path&gt; copy 3" class="s1" d="m1018 166.8c-0.8-9.3 9.3-8.7 9.5-2.8 0.3 3.5-3 4.9-2.9 8.1 0.1 4 6.7 7.6 16 7.6 10.2 0 16.2-4 16.2-10.6 0-14.3-36.9-10.1-36.9-28.9 0-9.2 8.9-15.8 21.2-15.8 11.9 0 21.1 6.3 21.8 14.8 0.9 9.3-9.3 8.7-9.5 2.8-0.3-3.5 3.4-4.9 3.3-8-0.1-4.3-6.8-7.9-14.7-7.9-8.8 0-14.6 4.1-14.6 10.2 0 14 37.7 11.1 37.7 28.9 0 9.3-10.2 16.3-24.1 16.3-13.1 0-22.3-6.4-23-14.7z"/>
			<path id="&lt;Compound Path&gt; copy 4" class="s1" d="m1072.3 130.8c0-1.6-1.1-2.8-2.9-3l-3.2-0.2c-1.2-0.1-1.3-2 0-2h15.7v48.6c0 2.8 1.1 4.2 3.3 4.2 1.7 0 3.2-0.8 4.2-2.4 0.7-1.1 2.4-0.5 1.7 1-1.1 2.4-4.3 4.5-8.8 4.5-6.2 0-10-3.8-10-10z"/>
			<path id="&lt;Compound Path&gt; copy 5" class="s1" d="m1143.1 207.4c16.2 7.6 32 14.9 47.3 14.9 11.4 0 19.5-4 22.5-11.4 2-4.6 1.5-9.7-1.1-11.3-3.3-2-6.3 0.2-9.3-1.9-3.6-2.6-1.7-8.5 3-8.5 14.4 0 20.6 34.8-14 34.8-16.2 0-32.7-7.3-48.8-14.9-0.7 4.1-1.8 8.1-3.2 11.6-7.1 18.3-23.6 29.3-43.8 29.3-27.2 0-40.8-16.1-40.8-31.5 0-14.3 11.6-28.1 35-28.1 15.2 0 30.3 6.2 45.2 13.2v0.1c0.4-6.8 0.6-15.7 0.6-28.2v-10.8c-3.1 10.2-10.6 16.8-19.9 16.8-32.5 0-29.4-56.9-0.4-56.9 9.6 0 17.2 6.5 20.3 16.7v-10.5c0-1.6-1.1-2.8-2.9-3l-3.2-0.2c-1.2-0.1-1.3-2 0-2h15.7v44.1c0 12.3-0.1 25.8-2.2 37.7zm-48.5-14.4c-19.9 0-29.8 13-29.8 26.2 0 14.3 11.1 28.8 33.6 28.8 16.6 0 29.6-10.3 34.4-27.2 1.1-3.8 1.7-8.3 2.2-15.3-14.1-6.6-27.8-12.5-40.4-12.5zm41.1-39.7c0-14.7-7.4-25.8-17.5-25.8-19.6 0-22.3 50.9 0.3 50.9 9.9 0 17.2-10.6 17.2-25.1z"/>
			<path id="&lt;Compound Path&gt; copy 6" class="s1" d="m1162.9 141.2c3.1-10.4 11.5-16.7 21.2-16.7 10.4 0 16.7 7.4 16.7 19.9v29.8c0 2.8 1.1 4.2 3.3 4.2 1.8 0 3.2-0.8 4.2-2.4 0.8-1.1 2.5-0.5 1.7 1-1.1 2.4-4.3 4.5-8.8 4.5-6.1 0-9.9-3.8-9.9-10v-24.8c0-12.4-3.9-18.9-11.4-18.9-9.4 0-17 10.9-17 24.5v43.2c0 30.1-13.3 49.1-34.4 49.1-19.8 0-29.2-14-29.2-27.6 0-12.8 8.4-25.3 24.7-25.3 7.4 0 10.1 2.9 10.1 5.7 0 2.4-2 4.6-4.8 4.6-4.8 0-3.3-6.3-10.9-6.3-10.9 0-17.3 10.7-17.3 21.7 0 11.6 7.1 23.5 23.6 23.5 17.9 0 28.6-16.5 28.6-44.6v-65.5c0-1.6-1.1-2.8-2.9-3l-3.2-0.2c-1.3-0.1-1.4-2 0-2h15.7z"/>
			<path id="&lt;Path&gt; copy" class="s1" d="m1236 103.7h-17.5v-17.6c0-2.4-2-4.3-4.4-4.3-2.4 0-4.4 1.9-4.4 4.3v17.6h-17.5c-2.4 0-4.3 1.9-4.3 4.3 0 2.4 1.9 4.4 4.3 4.4h17.5v17.5c0 2.4 2 4.4 4.4 4.4 2.4 0 4.4-2 4.4-4.4v-17.5h17.5c2.4 0 4.4-2 4.4-4.4 0-2.4-2-4.3-4.4-4.3z"/>
			<path id="&lt;Path&gt; copy 2" class="s1" d="m870.4 202.8c0 0.6-0.8 1.2-1.8 1.2h-0.1l-0.6-0.2h-0.1c-3.1-1.4-5.8-3.5-8.2-5.5-12.4-10-18.1-24.4-18.8-37.2-0.1-1.5 1.1-2.7 2.6-2.7h6.7c1.4 0 2.6 1.1 2.6 2.5 0.4 13.6 4.4 30.9 17.5 41.4 0.1 0.1 0.2 0.3 0.2 0.5z"/>
			<path id="&lt;Path&gt; copy 3" class="s1" d="m978.9 94.2c0-0.6 0.9-1.2 1.9-1.2h0.1l0.5 0.2h0.2c3.1 1.4 5.8 3.5 8.2 5.5 12.4 10 18.1 24.5 18.8 37.2 0.1 1.5-1.1 2.8-2.6 2.8h-6.7c-1.4 0-2.6-1.1-2.6-2.5-0.4-13.7-4.4-31-17.5-41.5-0.1-0.1-0.3-0.2-0.3-0.5z"/>
			<path id="&lt;Path&gt; copy 4" class="s1" d="m1083.3 111.2h-5.8v-5.8c0-0.8-0.6-1.4-1.4-1.4-0.8 0-1.4 0.6-1.4 1.4v5.8h-5.8c-0.8 0-1.4 0.6-1.4 1.4 0 0.8 0.6 1.4 1.4 1.4h5.8v5.8c0 0.8 0.6 1.4 1.4 1.4 0.8 0 1.4-0.6 1.4-1.4v-5.8h5.8c0.8 0 1.4-0.6 1.4-1.4 0-0.8-0.6-1.4-1.4-1.4z"/>
		</g>
		<g id="-e-blue">
			<path id="&lt;Compound Path&gt; copy 19" class="s2" d="m909.9 358.4v-24.2q-5.1 0.3-10.7 0.3c-92.1 0-85.9-83.7-25.4-83.7 44.7 0 45.6 45.7 45.6 80.6 27.8-4.6 45.8-18.8 45.8-37.1 0-11.5-7.1-19.6-16.4-19.6-9.7 0-8.4 8.3-14.2 8.3-6.8 0-9-12.7 8.5-12.7 33.6 0 37.9 53.2-23.7 62.8v58.1c0 2.8 1.1 4.3 3.3 4.3 1.8 0 3.2-0.9 4.2-2.5 0.7-1.1 2.5-0.4 1.7 1-1.1 2.5-4.3 4.5-8.8 4.5-6.1 0-9.9-3.7-9.9-10v-6.7c-3.2 10.1-10.7 16.7-20 16.7-32.4 0-29.3-56.7-0.3-56.7 9.5 0 17.1 6.4 20.3 16.6zm0-33.5c0-27.5-0.9-37.7-3.3-46.8-4.7-16.9-15.3-25.5-31.6-25.5-49.9 0-54.7 80.2 24.9 80.2 3.4 0 6.7-0.1 10-0.3zm0 45.5c0-14.7-7.5-25.8-17.5-25.8-19.6 0-22.3 50.9 0.2 50.9 9.9 0 17.3-10.7 17.3-25.1z"/>
			<path id="&lt;Compound Path&gt; copy 20" class="s2" d="m954.6 396.5c19.9 0 19.1-24.4 35.6-24.4 10.1 0 8.9 9.2 3 9.6-3.1 0.1-3.9-3.3-8.3-3.3-10.5 0-9.9 20.1-32.5 20.1-17.3 0-28.8-11.7-28.8-28.2 0-16.7 11.6-28.7 27.8-28.7 14.7 0 23.9 9.9 25.3 24.5 0.3 2.1-0.2 2.6-2.3 2.6-15.5 0-26 0-40.8 0 0 16.8 8.4 27.8 21 27.8zm12.3-29.5c-0.3-14.5-5.7-23.7-15.5-23.7-10.9 0-16.8 11.6-17.6 23.7z"/>
			<path id="&lt;Compound Path&gt; copy 21" class="s2" d="m1017.8 383.9c-0.7-9.3 9.3-8.7 9.6-2.9 0.2 3.6-3.1 4.9-3 8.1 0.2 4.1 6.8 7.6 16.1 7.6 10.1 0 16.1-3.9 16.1-10.5 0-14.3-36.8-10.2-36.8-28.9 0-9.2 8.8-15.8 21.2-15.8 11.8 0 21 6.3 21.7 14.8 0.9 9.3-9.3 8.7-9.5 2.8-0.2-3.5 3.4-4.9 3.3-8-0.1-4.3-6.7-7.9-14.7-7.9-8.8 0-14.6 4.1-14.6 10.2 0 13.9 37.7 11.1 37.7 28.9 0 9.3-10.2 16.2-24.1 16.2-13.1 0-22.2-6.3-23-14.6z"/>
			<path id="&lt;Compound Path&gt; copy 22" class="s2" d="m1072.1 347.9c0-1.6-1.1-2.8-2.9-3l-3.2-0.2c-1.2-0.1-1.3-2 0-2h15.7v48.5c0 2.8 1.1 4.3 3.3 4.3 1.7 0 3.2-0.9 4.1-2.5 0.8-1.1 2.5-0.4 1.8 1-1.1 2.5-4.3 4.5-8.8 4.5-6.2 0-10-3.7-10-10z"/>
			<path id="&lt;Compound Path&gt; copy 23" class="s2" d="m1142.8 424.4c16.2 7.6 32 14.9 47.3 14.9 11.4 0 19.4-4 22.5-11.4 1.9-4.6 1.5-9.6-1.1-11.2-3.3-2.1-6.4 0.1-9.3-2-3.7-2.6-1.7-8.4 2.9-8.4 14.5 0 20.6 34.7-13.9 34.7-16.2 0-32.7-7.3-48.7-14.9-0.8 4.2-1.9 8.1-3.2 11.6-7.1 18.3-23.7 29.3-43.9 29.3-27.1 0-40.7-16.1-40.7-31.5 0-14.3 11.6-28 35-28 15.2 0 30.2 6.1 45.2 13.1v0.1c0.3-6.7 0.6-15.7 0.6-28.1v-10.8c-3.2 10.1-10.7 16.7-20 16.7-32.4 0-29.4-56.7-0.3-56.7 9.5 0 17.1 6.4 20.3 16.6v-10.5c0-1.6-1.1-2.8-3-3l-3.1-0.2c-1.3-0.1-1.4-2 0-2h15.6v44.1c0 12.2-0.1 25.7-2.2 37.6zm-48.5-14.3c-19.8 0-29.7 12.9-29.7 26.1 0 14.2 11.1 28.8 33.5 28.8 16.7 0 29.7-10.3 34.4-27.2 1.1-3.8 1.8-8.3 2.2-15.3-14-6.6-27.7-12.4-40.4-12.4zm41.2-39.7c0-14.7-7.5-25.8-17.5-25.8-19.6 0-22.3 50.9 0.2 50.9 9.9 0 17.3-10.7 17.3-25.1z"/>
			<path id="&lt;Compound Path&gt; copy 24" class="s2" d="m1162.6 358.3c3.1-10.4 11.5-16.7 21.1-16.7 10.4 0 16.8 7.4 16.8 19.9v29.7c0 2.8 1.1 4.3 3.3 4.3 1.7 0 3.2-0.9 4.2-2.5 0.7-1.1 2.4-0.4 1.7 1-1.1 2.5-4.3 4.5-8.8 4.5-6.2 0-9.9-3.7-9.9-10v-24.7c0-12.4-4-18.9-11.4-18.9-9.5 0-17 10.9-17 24.5v43.1c0 30.1-13.3 49.1-34.3 49.1-19.8 0-29.3-14-29.3-27.6 0-12.8 8.5-25.3 24.8-25.3 7.3 0 10 2.9 10 5.8 0 2.3-2 4.5-4.8 4.5-4.8 0-3.3-6.3-10.9-6.3-10.9 0-17.2 10.7-17.2 21.7 0 11.6 7.1 23.5 23.6 23.5 17.9 0 28.5-16.5 28.5-44.5v-65.5c0-1.6-1.1-2.8-2.9-3l-3.2-0.2c-1.2-0.1-1.4-2 0-2h15.7z"/>
			<path id="&lt;Path&gt; copy 13" class="s2" d="m1235.6 320.8h-17.5v-17.5c0-2.4-1.9-4.4-4.3-4.4-2.4 0-4.4 2-4.4 4.4v17.5h-17.5c-2.4 0-4.4 1.9-4.4 4.4 0 2.4 2 4.3 4.4 4.3h17.5v17.5c0 2.4 2 4.4 4.4 4.4 2.4 0 4.3-2 4.3-4.4v-17.5h17.5c2.4 0 4.4-1.9 4.4-4.3 0-2.5-2-4.4-4.4-4.4z"/>
			<path id="&lt;Path&gt; copy 14" class="s2" d="m870.5 419.9c0 0.5-0.9 1.1-1.8 1.1h-0.2l-0.5-0.1h-0.2c-3-1.5-5.8-3.6-8.2-5.6-12.4-9.9-18-24.4-18.8-37.1-0.1-1.5 1.1-2.8 2.7-2.8h6.6c1.4 0 2.6 1.1 2.6 2.5 0.5 13.7 4.4 30.9 17.5 41.4 0.1 0.1 0.3 0.3 0.3 0.6z"/>
			<path id="&lt;Path&gt; copy 15" class="s2" d="m978.8 311.3c0-0.5 0.9-1.2 1.8-1.2h0.2l0.5 0.2h0.2c3 1.5 5.8 3.6 8.2 5.6 12.4 9.9 18.1 24.4 18.8 37.1 0.1 1.5-1.1 2.8-2.7 2.8h-6.6c-1.4 0-2.6-1.1-2.6-2.5-0.4-13.7-4.4-30.9-17.5-41.4-0.1-0.1-0.3-0.3-0.3-0.6z"/>
			<path id="&lt;Path&gt; copy 16" class="s2" d="m1083.1 328.3h-5.8v-5.8c0-0.8-0.6-1.4-1.4-1.4-0.8 0-1.5 0.6-1.5 1.4v5.8h-5.7c-0.8 0-1.4 0.6-1.4 1.4 0 0.8 0.6 1.5 1.4 1.5h5.7v5.7c0 0.8 0.7 1.5 1.5 1.5 0.8 0 1.4-0.7 1.4-1.5v-5.7h5.8c0.8 0 1.4-0.7 1.4-1.5 0-0.8-0.6-1.4-1.4-1.4z"/>
		</g>
		<g id="-e-green">
			<path id="&lt;Compound Path&gt; copy 19" class="s3" d="m909.9 576.1v-24.2q-5.1 0.3-10.7 0.3c-92.1 0-85.9-83.7-25.4-83.7 44.7 0 45.6 45.7 45.6 80.6 27.8-4.6 45.8-18.8 45.8-37.1 0-11.5-7.1-19.6-16.4-19.6-9.7 0-8.4 8.3-14.2 8.3-6.8 0-9-12.7 8.5-12.7 33.6 0 37.9 53.2-23.7 62.8v58.1c0 2.8 1.1 4.3 3.3 4.3 1.8 0 3.2-0.9 4.2-2.4 0.7-1.1 2.5-0.5 1.7 0.9-1.1 2.5-4.3 4.6-8.8 4.6-6.1 0-9.9-3.8-9.9-10.1v-6.7c-3.2 10.2-10.7 16.8-20 16.8-32.4 0-29.3-56.8-0.3-56.8 9.5 0 17.1 6.5 20.3 16.6zm0-33.5c0-27.4-0.9-37.7-3.3-46.8-4.7-16.9-15.3-25.4-31.6-25.4-49.9 0-54.7 80.1 24.9 80.1 3.4 0 6.7-0.1 10-0.3zm0 45.5c0-14.7-7.5-25.8-17.5-25.8-19.6 0-22.3 50.9 0.2 50.9 9.9 0 17.3-10.7 17.3-25.1z"/>
			<path id="&lt;Compound Path&gt; copy 20" class="s3" d="m954.6 614.2c19.9 0 19.1-24.4 35.6-24.4 10.1 0 8.9 9.2 3 9.6-3.1 0.1-3.9-3.3-8.3-3.3-10.5 0-9.9 20.2-32.5 20.2-17.3 0-28.8-11.8-28.8-28.3 0-16.7 11.6-28.7 27.8-28.7 14.7 0 23.9 10 25.3 24.5 0.3 2.1-0.2 2.6-2.3 2.6-15.5 0-26 0-40.8 0 0 16.8 8.4 27.8 21 27.8zm12.3-29.5c-0.3-14.5-5.7-23.6-15.5-23.6-10.9 0-16.8 11.5-17.6 23.6z"/>
			<path id="&lt;Compound Path&gt; copy 21" class="s3" d="m1017.8 601.6c-0.7-9.3 9.3-8.7 9.6-2.8 0.2 3.5-3.1 4.9-3 8 0.2 4.1 6.8 7.6 16.1 7.6 10.1 0 16.1-3.9 16.1-10.5 0-14.3-36.8-10.2-36.8-28.9 0-9.2 8.8-15.8 21.2-15.8 11.8 0 21 6.3 21.7 14.8 0.9 9.3-9.3 8.7-9.5 2.9-0.2-3.6 3.4-4.9 3.3-8.1-0.1-4.3-6.7-7.9-14.7-7.9-8.8 0-14.6 4.1-14.6 10.2 0 14 37.7 11.1 37.7 28.9 0 9.3-10.2 16.3-24.1 16.3-13.1 0-22.2-6.4-23-14.7z"/>
			<path id="&lt;Compound Path&gt; copy 22" class="s3" d="m1072.1 565.6c0-1.6-1.1-2.8-2.9-2.9l-3.2-0.3c-1.2-0.1-1.3-2 0-2h15.7v48.5c0 2.8 1.1 4.3 3.3 4.3 1.7 0 3.2-0.9 4.1-2.4 0.8-1.1 2.5-0.5 1.8 0.9-1.1 2.5-4.3 4.6-8.8 4.6-6.2 0-10-3.8-10-10.1z"/>
			<path id="&lt;Compound Path&gt; copy 23" class="s3" d="m1142.8 642.1c16.2 7.6 32 14.9 47.3 14.9 11.4 0 19.4-4 22.5-11.4 1.9-4.6 1.5-9.6-1.1-11.2-3.3-2.1-6.4 0.1-9.3-2-3.7-2.5-1.7-8.4 2.9-8.4 14.5 0 20.6 34.7-13.9 34.7-16.2 0-32.7-7.3-48.7-14.9-0.8 4.2-1.9 8.1-3.2 11.6-7.1 18.3-23.7 29.3-43.9 29.3-27.1 0-40.7-16-40.7-31.5 0-14.3 11.6-28 35-28 15.2 0 30.2 6.1 45.2 13.1v0.1c0.3-6.7 0.6-15.6 0.6-28.1v-10.8c-3.2 10.2-10.7 16.8-20 16.8-32.4 0-29.4-56.8-0.3-56.8 9.5 0 17.1 6.5 20.3 16.6v-10.5c0-1.6-1.1-2.8-3-2.9l-3.1-0.3c-1.3-0.1-1.4-2 0-2h15.6v44.1c0 12.3-0.1 25.7-2.2 37.6zm-48.5-14.3c-19.8 0-29.7 12.9-29.7 26.2 0 14.2 11.1 28.7 33.5 28.7 16.7 0 29.7-10.3 34.4-27.1 1.1-3.8 1.8-8.4 2.2-15.3-14-6.7-27.7-12.5-40.4-12.5zm41.2-39.7c0-14.7-7.5-25.8-17.5-25.8-19.6 0-22.3 50.9 0.2 50.9 9.9 0 17.3-10.6 17.3-25.1z"/>
			<path id="&lt;Compound Path&gt; copy 24" class="s3" d="m1162.6 576c3.1-10.4 11.5-16.7 21.1-16.7 10.4 0 16.8 7.4 16.8 19.9v29.7c0 2.8 1.1 4.3 3.3 4.3 1.7 0 3.2-0.9 4.2-2.4 0.7-1.1 2.4-0.5 1.7 0.9-1.1 2.5-4.3 4.6-8.8 4.6-6.2 0-9.9-3.8-9.9-10.1v-24.7c0-12.4-4-18.8-11.4-18.8-9.5 0-17 10.8-17 24.4v43.1c0 30.1-13.3 49.1-34.3 49.1-19.8 0-29.3-14-29.3-27.5 0-12.9 8.5-25.4 24.8-25.4 7.3 0 10 3 10 5.8 0 2.3-2 4.5-4.8 4.5-4.8 0-3.3-6.2-10.9-6.2-10.9 0-17.2 10.6-17.2 21.6 0 11.7 7.1 23.5 23.6 23.5 17.9 0 28.5-16.5 28.5-44.5v-65.5c0-1.6-1.1-2.8-2.9-2.9l-3.2-0.3c-1.2-0.1-1.4-2 0-2h15.7z"/>
			<path id="&lt;Path&gt; copy 13" class="s3" d="m1235.6 538.5h-17.5v-17.5c0-2.4-1.9-4.4-4.3-4.4-2.4 0-4.4 2-4.4 4.4v17.5h-17.5c-2.4 0-4.4 2-4.4 4.4 0 2.4 2 4.3 4.4 4.3h17.5v17.5c0 2.4 2 4.4 4.4 4.4 2.4 0 4.3-2 4.3-4.4v-17.5h17.5c2.4 0 4.4-1.9 4.4-4.3 0-2.4-2-4.4-4.4-4.4z"/>
			<path id="&lt;Path&gt; copy 14" class="s3" d="m870.5 637.6c0 0.5-0.9 1.2-1.8 1.2h-0.2l-0.5-0.2h-0.2c-3-1.5-5.8-3.6-8.2-5.6-12.4-9.9-18-24.4-18.8-37.1-0.1-1.5 1.1-2.8 2.7-2.8h6.6c1.4 0 2.6 1.1 2.6 2.6 0.5 13.6 4.4 30.8 17.5 41.3 0.1 0.1 0.3 0.3 0.3 0.6z"/>
			<path id="&lt;Path&gt; copy 15" class="s3" d="m978.8 529c0-0.5 0.9-1.1 1.8-1.1h0.2l0.5 0.1h0.2c3 1.5 5.8 3.6 8.2 5.6 12.4 9.9 18.1 24.4 18.8 37.1 0.1 1.5-1.1 2.8-2.7 2.8h-6.6c-1.4 0-2.6-1.1-2.6-2.5-0.4-13.7-4.4-30.9-17.5-41.4-0.1-0.1-0.3-0.3-0.3-0.6z"/>
			<path id="&lt;Path&gt; copy 16" class="s3" d="m1083.1 546h-5.8v-5.8c0-0.7-0.6-1.4-1.4-1.4-0.8 0-1.5 0.7-1.5 1.4v5.8h-5.7c-0.8 0-1.4 0.6-1.4 1.4 0 0.8 0.6 1.5 1.4 1.5h5.7v5.7c0 0.8 0.7 1.5 1.5 1.5 0.8 0 1.4-0.7 1.4-1.5v-5.7h5.8c0.8 0 1.4-0.7 1.4-1.5 0-0.8-0.6-1.4-1.4-1.4z"/>
		</g>
	</g>
</svg>