<svg version="1.2" xmlns="http://www.w3.org/2000/svg" viewBox="0 -0.39370078740103054 850.393700787401 452.39370078740103" width="851" height="453">
	<title>DSP logo</title>
	<style>
		.s0 { fill: #ffffff } 
		.s1 { fill: #84d632 } 
		.s2 { fill: #f05c5c } 
		.s3 { fill: #ffc248 } 
		.s4 { fill: #3be2ff } 
	</style>
	<g id="Layer 1">
		<g id="-e-white">
			<path id="&lt;Compound Path&gt; copy" class="s0" d="m185.6 224.7v-46.7q-9.9 0.7-20.5 0.7c-177.3 0-165.3-161.1-49-161.1 86 0 87.9 87.9 87.9 155 53.5-8.7 88.1-36 88.1-71.4 0-22.1-13.7-37.7-31.6-37.7-18.6 0-16.2 16.1-27.3 16.1-13.2 0-17.4-24.5 16.3-24.5 64.7 0 73 102.4-45.5 120.8v111.9c0 5.4 2.1 8.2 6.4 8.2 3.3 0 6.1-1.6 8-4.7 1.4-2.1 4.7-0.9 3.3 1.9-2.2 4.7-8.3 8.7-17 8.7-11.8 0-19.1-7.3-19.1-19.3v-12.9c-6.1 19.5-20.5 32.2-38.4 32.2-62.4 0-56.5-109.3-0.7-109.3 18.4 0 33 12.5 39.1 32.1zm0-64.6c0-52.7-1.6-72.5-6.3-90-9-32.5-29.5-49-60.8-49-96.1 0-105.3 154.3 47.8 154.3 6.6 0 13-0.2 19.3-0.7zm0 87.7c0-28.3-14.3-49.7-33.7-49.7-37.7 0-42.8 97.9 0.5 97.9 19.1 0 33.2-20.4 33.2-48.2z"/>
			<path id="&lt;Compound Path&gt; copy 2" class="s0" d="m271.6 297.9c38.4 0 36.7-46.9 68.6-46.9 19.5 0 17.1 17.7 5.8 18.4-6.1 0.3-7.5-6.3-16-6.3-20.2 0-19.1 38.8-62.6 38.8-33.3 0-55.4-22.6-55.4-54.4 0-32 22.4-55.1 53.5-55.1 28.2 0 45.9 19.1 48.7 47.1 0.5 4-0.4 5-4.4 5-30 0-50 0-78.5 0 0 32.2 16 53.4 40.3 53.4zm23.8-56.7c-0.7-27.8-11.1-45.5-29.9-45.5-21 0-32.3 22.1-33.9 45.5z"/>
			<path id="&lt;Compound Path&gt; copy 3" class="s0" d="m393.3 273.7c-1.4-17.9 17.9-16.8 18.4-5.5 0.5 6.9-5.9 9.5-5.6 15.6 0.2 7.8 12.9 14.6 30.8 14.6 19.6 0 31.1-7.5 31.1-20.3 0-27.5-70.9-19.5-70.9-55.6 0-17.6 17-30.3 40.8-30.3 22.8 0 40.5 12 41.9 28.5 1.6 17.9-17.9 16.7-18.4 5.4-0.5-6.9 6.6-9.4 6.4-15.6-0.3-8.2-13-15-28.3-15-17 0-28 7.7-28 19.5 0 26.9 72.5 21.4 72.5 55.6 0 17.9-19.8 31.3-46.4 31.3-25.2 0-42.9-12.2-44.3-28.2z"/>
			<path id="&lt;Compound Path&gt; copy 4" class="s0" d="m497.9 204.4c0-3.1-2.2-5.4-5.7-5.6l-6.1-0.5c-2.4-0.3-2.6-3.8 0-3.8h30.1v93.3c0 5.4 2.2 8.2 6.4 8.2 3.3 0 6.1-1.6 8-4.7 1.4-2.1 4.7-0.9 3.3 1.9-2.1 4.7-8.2 8.7-17 8.7-11.7 0-19-7.3-19-19.3z"/>
			<path id="&lt;Compound Path&gt; copy 5" class="s0" d="m633.9 351.6c31.1 14.6 61.5 28.8 90.9 28.8 21.9 0 37.5-7.8 43.4-21.9 3.7-9 2.8-18.6-2.2-21.7-6.3-4-12.2 0.2-17.9-3.8-7-4.9-3.3-16.2 5.7-16.2 27.8 0 39.6 66.9-26.9 66.9-31.1 0-62.9-14.2-93.7-28.8-1.4 8-3.6 15.6-6.1 22.4-13.7 35.1-45.5 56.3-84.4 56.3-52.3 0-78.4-30.9-78.4-60.5 0-27.6 22.4-54 67.4-54 29.2 0 58.1 11.8 86.9 25.2v0.3c0.7-13 1.2-30.2 1.2-54.2v-20.7c-6.2 19.5-20.5 32.2-38.4 32.2-62.5 0-56.6-109.3-0.8-109.3 18.4 0 33 12.5 39.2 32.1v-20.3c0-3.1-2.2-5.4-5.7-5.6l-6.1-0.5c-2.4-0.3-2.6-3.8 0-3.8h30.1v84.8c0 23.6-0.2 49.5-4.2 72.3zm-93.3-27.5c-38.2 0-57.2 24.9-57.2 50.4 0 27.3 21.4 55.3 64.5 55.3 32 0 57-19.7 66.2-52.3 2.1-7.3 3.3-16 4.2-29.4-27.1-12.7-53.4-24-77.7-24zm79.2-76.4c0-28.2-14.4-49.7-33.7-49.7-37.7 0-42.9 98 0.4 98 19.1 0 33.3-20.5 33.3-48.3z"/>
			<path id="&lt;Compound Path&gt; copy 6" class="s0" d="m671.9 224.4c6.1-20 22.1-32 40.7-32 20 0 32.3 14.1 32.3 38.2v57.2c0 5.4 2.1 8.2 6.4 8.2 3.3 0 6.1-1.6 8-4.7 1.4-2.1 4.7-0.9 3.3 1.9-2.2 4.7-8.3 8.7-17 8.7-11.8 0-19.1-7.3-19.1-19.3v-47.6c0-23.8-7.5-36.2-21.9-36.2-18.1 0-32.7 20.9-32.7 47.1v82.9c0 57.9-25.5 94.4-66 94.4-38.1 0-56.3-26.8-56.3-53 0-24.7 16.3-48.7 47.6-48.7 14.1 0 19.3 5.6 19.3 11.1 0 4.4-3.8 8.7-9.2 8.7-9.2 0-6.3-12-20.9-12-21 0-33.3 20.4-33.3 41.6 0 22.4 13.7 45.3 45.5 45.3 34.4 0 54.9-31.8 54.9-85.8v-126c0-3.1-2.1-5.4-5.7-5.6l-6.1-0.5c-2.3-0.3-2.6-3.8 0-3.8h30.2z"/>
			<path id="&lt;Path&gt; copy" class="s1" d="m812.5 152.3h-33.7v-33.7c0-4.6-3.7-8.4-8.4-8.4-4.6 0-8.4 3.8-8.4 8.4v33.7h-33.6c-4.7 0-8.5 3.7-8.5 8.4 0 4.6 3.8 8.4 8.5 8.4h33.6v33.7c0 4.6 3.8 8.4 8.4 8.4 4.7 0 8.4-3.8 8.4-8.4v-33.7h33.7c4.6 0 8.4-3.8 8.4-8.4 0-4.7-3.8-8.4-8.4-8.4z"/>
			<path id="&lt;Path&gt; copy 2" class="s2" d="m109.7 343c0 1-1.6 2.2-3.4 2.2h-0.3l-1.1-0.3h-0.2c-5.9-2.8-11.3-6.8-15.8-10.7-23.9-19.2-34.8-47-36.2-71.4-0.1-2.9 2.2-5.4 5.1-5.4h12.8c2.7 0 4.9 2.2 5 4.9 0.8 26.2 8.4 59.4 33.6 79.6 0.2 0.2 0.5 0.5 0.5 1.1z"/>
			<path id="&lt;Path&gt; copy 3" class="s3" d="m318.3 134.1c0-1.1 1.6-2.3 3.5-2.3h0.3l1 0.3h0.3c5.9 2.8 11.2 6.8 15.8 10.7 23.8 19.2 34.8 47 36.1 71.4 0.2 2.9-2.1 5.4-5 5.4h-12.8c-2.7 0-5-2.1-5.1-4.9-0.8-26.2-8.4-59.4-33.6-79.6-0.2-0.2-0.5-0.5-0.5-1z"/>
			<path id="&lt;Path&gt; copy 4" class="s4" d="m518.9 166.7h-11.1v-11.1c0-1.5-1.2-2.7-2.7-2.7-1.6 0-2.8 1.2-2.8 2.7v11.1h-11.1c-1.5 0-2.7 1.2-2.7 2.8 0 1.5 1.2 2.7 2.7 2.7h11.1v11.1c0 1.5 1.2 2.8 2.8 2.8 1.5 0 2.7-1.3 2.7-2.8v-11.1h11.1c1.5 0 2.8-1.2 2.8-2.7 0-1.6-1.3-2.8-2.8-2.8z"/>
		</g>
	</g>
</svg>